<?xml version="1.0" standalone="no"?>
<!DOCTYPE svg PUBLIC "-//W3C//DTD SVG 20010904//EN"
 "http://www.w3.org/TR/2001/REC-SVG-20010904/DTD/svg10.dtd">
<svg version="1.0" xmlns="http://www.w3.org/2000/svg"
 width="246.000000pt" height="246.000000pt" viewBox="0 0 246.000000 246.000000"
 preserveAspectRatio="xMidYMid meet">
<metadata>
Created by potrace 1.11, written by Peter Selinger 2001-2013
</metadata>
<g transform="translate(0.000000,246.000000) scale(0.100000,-0.100000)"
fill="#000000" stroke="none">
<path d="M1070 2453 c-118 -16 -270 -59 -347 -99 -27 -13 -51 -24 -55 -24 -4
0 -31 -14 -60 -32 -267 -163 -469 -417 -553 -693 -26 -86 -30 -104 -45 -208
-12 -81 -6 -320 9 -397 80 -392 318 -705 666 -876 166 -82 307 -115 505 -119
179 -4 285 10 430 56 311 99 578 335 721 635 46 96 83 207 95 284 3 19 9 53
14 75 5 22 7 114 5 205 -3 144 -7 180 -33 281 -121 471 -511 828 -985 903 -80
12 -302 18 -367 9z"/>
</g>
</svg>
